PathFileType	4	(X/Y/Z)	Run_400 02
DataRate	CameraRate	NumFrames	NumMarkers	Units	OrigDataRate	OrigDataStartFrame	OrigNumFrames
100	100	6	42	mm	100	74	128
Frame#	Time	LPSI			RPSI			RTH2			RTH3			LTH1			LTH2			LTH3			RTB1			RTB2			LTB1			LTB2			RCAL			RTOE			RMT5			LCAL			LTOE			LMT5			LACR			RACR			CLAV			C7			RUA1			RUA2			RUA3			RLEL			LUA1			LUA2			LUA3			LLEL			LMEL			RFAsuperior			RFAulna			LFAsuperior			LFAradius			LFAulna			RASI			RTB3			LTB3			RMEL			RFAradius			RTH1			LASI			
		X1	Y1	Z1	X2	Y2	Z2	X3	Y3	Z3	X4	Y4	Z4	X5	Y5	Z5	X6	Y6	Z6	X7	Y7	Z7	X8	Y8	Z8	X9	Y9	Z9	X10	Y10	Z10	X11	Y11	Z11	X12	Y12	Z12	X13	Y13	Z13	X14	Y14	Z14	X15	Y15	Z15	X16	Y16	Z16	X17	Y17	Z17	X18	Y18	Z18	X19	Y19	Z19	X20	Y20	Z20	X21	Y21	Z21	X22	Y22	Z22	X23	Y23	Z23	X24	Y24	Z24	X25	Y25	Z25	X26	Y26	Z26	X27	Y27	Z27	X28	Y28	Z28	X29	Y29	Z29	X30	Y30	Z30	X31	Y31	Z31	X32	Y32	Z32	X33	Y33	Z33	X34	Y34	Z34	X35	Y35	Z35	X36	Y36	Z36	X37	Y37	Z37	X38	Y38	Z38	X39	Y39	Z39	X40	Y40	Z40	X41	Y41	Z41	X42	Y42	Z42	

52	1.38	842.901693	1102.564222	-404.876447	840.413801	1096.133061	-291.34865	961.071158	778.428935	-189.618	1083.804503	670.421279	-189.487714	919.449371	901.570459	-520.3153620000001	827.293458	758.782009	-471.646098	862.223021	619.870452	-460.956686	1051.990895	469.564042	-251.567547	974.8982999999999	522.4403620000001	-182.148666	853.134663	391.744453	-379.315685	724.8595800000001	335.121353	-421.059501	694.768786	454.793041	-240.713992	807.410832	239.779731	-258.711732	765.6859899999999	270.481909	-164.001957	538.132293	156.886116	-317.862395	757.548855	67.108075	-310.030906	694.049874	39.959493	-400.958121	992.2781670000001	1520.105837	-508.733773	987.429304	1507.19148	-182.956109	1053.562549	1472.071177	-310.901899	934.056733	1540.572493	-352.175402	856.152569	1440.189298	-132.612453	880.027048	1381.3431	-86.703928	789.5701309999999	1335.373374	-50.576108	738.681046	1293.933455	-21.758052	898.233133	1418.792298	-564.7787080000001	928.825497	1341.743581	-586.095549	858.099201	1275.152705	-610.8257139999999	842.462954	1210.50927	-631.37551	827.317687	1187.118116	-543.786291	803.417146	1204.041093	-9.548333	889.009801	1070.512733	-37.564356	916.004408	1167.744244	-623.61674	1080.971073	1194.119709	-533.233303	1081.779821	1128.700032	-562.249271	998.812091	1029.467856	-222.014993	873.745529	412.455586	-250.394195	719.458571	219.409656	-352.747095	736.25796	1259.062037	-104.750462	932.745122	1097.145096	-83.442618	935.908265	922.448484	-168.988612	994.6851339999999	1046.087589	-486.432997	
53	1.39	846.424268	1109.440029	-406.873935	841.805978	1104.762909	-292.93989	966.437262	789.142066	-189.779936	1091.360597	684.6365520000001	-190.925696	919.869222	906.847934	-519.127837	817.212881	769.819196	-471.247641	843.858431	629.407475	-461.25488	1071.362366	475.529807	-251.847336	989.7661430000001	521.7552010000001	-183.933319	824.654404	400.69051	-382.315266	695.378871	346.86271	-423.967504	717.1078680000001	424.879639	-240.284255	852.411907	223.408498	-258.701014	807.57713	249.388263	-163.477398	509.125206	173.264795	-323.059793	719.511036	65.705054	-311.140746	654.814104	41.47686	-401.82797	993.977477	1529.191172	-507.088831	983.252154	1515.989726	-182.017858	1051.560664	1481.199472	-308.573427	932.915575	1548.694497	-351.754557	850.257358	1451.752693	-135.56829	872.300404	1392.433912	-88.0929	780.342349	1347.846917	-54.339567	727.731692	1307.193415	-27.164226	901.55671	1427.645158	-565.233942	933.718478	1350.953043	-586.188246	864.640148	1283.58803	-612.827281	849.138911	1218.960396	-633.262552	832.7491690000001	1195.433783	-546.101485	792.318398	1217.978097	-13.617983	879.9334239999999	1085.12051	-40.01052	923.865742	1180.096234	-622.740668	1084.561065	1215.484466	-528.727213	1089.225134	1149.558254	-555.902409	999.4717889999999	1038.693994	-222.568864	897.523497	400.112869	-249.774072	689.307321	229.933621	-356.992181	727.268927	1272.596756	-110.316462	924.36822	1112.92082	-84.55372300000001	938.408473	933.317197	-167.235852	998.207926	1052.78543	-488.564051	
54	1.4	850.379892	1116.317789	-408.845979	843.542358	1113.702626	-294.345856	971.241728	799.711994	-189.508103	1097.334348	697.835373	-192.285315	920.392848	912.3266139999999	-518.155701	808.335774	781.652062	-470.916659	826.7787980000001	640.119143	-461.896473	1089.298843	481.100904	-252.283219	1003.571017	519.702358	-185.388283	798.186048	411.286965	-386.135433	668.154133	359.820664	-427.232264	742.00575	393.925148	-241.080341	898.630898	208.352107	-259.029226	850.55245	229.312436	-163.767508	483.388927	191.259897	-328.262757	682.124609	64.957442	-312.349512	616.139309	44.005127	-402.697837	995.418992	1538.320029	-505.283467	979.675747	1524.610335	-181.175666	1049.624481	1490.214567	-306.393076	931.848336	1556.879525	-351.157645	845.239368	1463.333793	-138.154099	865.400475	1403.407578	-89.625411	771.930379	1360.379336	-58.345218	717.717615	1320.344501	-32.819326	904.587625	1436.862828	-565.636744	938.129742	1360.50858	-586.4034820000001	870.2265640000001	1292.733238	-614.791193	855.068164	1227.940756	-635.496567	837.401664	1204.314334	-548.697395	782.1532580000001	1231.689571	-17.95257	871.717934	1099.410054	-42.618816	930.642567	1192.655912	-622.212508	1086.469325	1236.335122	-524.368567	1095.061381	1170.158713	-550.064654	1000.309569	1048.159592	-222.679331	922.811463	387.497877	-249.529671	661.876973	241.608525	-362.033085	719.108021	1285.940059	-116.230254	916.657869	1128.362084	-85.937468	941.401091	944.328653	-165.43871	1002.163613	1059.485213	-490.66972	
55	1.41	854.418986	1122.963635	-410.679382	845.515401	1122.332239	-295.767331	975.308772	809.696767	-188.963519	1101.566069	709.634822	-193.591905	920.565653	917.954503	-517.6114	800.775948	793.723978	-471.004141	811.366704	651.424534	-462.898494	1105.890301	486.052972	-252.838851	1016.292929	516.173393	-186.597636	773.809708	422.952107	-390.112008	643.200813	373.713553	-430.602864	769.5503629999999	362.408636	-243.287575	945.669937	194.75868	-259.608166	894.358895	210.386305	-164.832315	460.730274	210.580079	-333.655234	645.384318	65.416968	-313.6378	578.4864219999999	48.261984	-403.887961	996.779373	1547.22292	-503.358503	976.601004	1532.784262	-180.5113	1047.888053	1498.747878	-304.39933	930.847874	1564.644618	-350.511751	841.019993	1474.523387	-140.39801	859.308863	1413.943991	-91.270169	764.378541	1372.751784	-62.441548	708.712842	1333.158915	-38.482889	907.3899730000001	1446.220101	-565.976577	942.01537	1370.143936	-586.785483	874.704738	1302.392559	-616.883634	860.264285	1237.276134	-638.04139	841.344557	1213.563193	-551.583769	772.981723	1244.891576	-22.381712	864.300966	1113.068518	-45.399958	936.454019	1205.218252	-622.079479	1087.043163	1256.321012	-520.364225	1099.480535	1190.021397	-544.906563	1001.260235	1057.319368	-222.286474	950.117452	375.134437	-250.20619	637.065646	254.062281	-367.353926	711.919389	1298.832951	-122.224551	909.592569	1143.131868	-87.549693	944.157312	954.883275	-163.944527	1006.202735	1065.953082	-492.637019	
56	1.42	858.2608739999999	1129.225473	-412.252091	847.628752	1130.09237	-297.30301	978.42644	818.717476	-188.538182	1103.790043	719.576083	-195.218396	920.50875	923.662796	-517.5811	794.527385	805.484951	-471.656545	797.866925	662.881662	-464.005267	1121.040274	490.013511	-253.315651	1028.05494	510.923947	-187.797074	751.749102	435.260839	-393.546399	620.720741	388.126462	-433.871367	799.608852	330.875885	-246.878657	993.074342	183.08331	-260.597438	938.854256	193.037656	-166.580869	441.305171	230.825705	-339.565039	609.785275	67.464963	-315.199172	542.747461	54.827909	-405.822605	998.134911	1555.666824	-501.383053	973.943479	1540.259856	-180.015357	1046.447763	1506.513688	-302.545941	929.947483	1571.664792	-349.902842	837.414943	1484.927588	-142.451829	853.921843	1423.758413	-92.939652	757.638433	1384.614302	-66.435126	700.694298	1345.267549	-43.960579	909.970178	1455.379654	-566.268925	945.323837	1379.579871	-587.3300829999999	878.169979	1312.214692	-619.2276450000001	864.75483	1246.691838	-640.747865	844.6066489999999	1222.881906	-554.652881	764.820072	1257.291804	-26.719382	857.719065	1125.864106	-48.266086	941.3633139999999	1217.568498	-622.28721	1086.616882	1275.069759	-516.906085	1102.723811	1208.810981	-540.584393	1002.227836	1065.714482	-221.455935	978.62986	363.191022	-252.030356	614.829834	266.980322	-372.441317	705.663942	1310.943098	-127.965482	903.277349	1157.001996	-89.306256	946.403562	964.581862	-162.806843	1010.044721	1072.036972	-494.34372	
57	1.43	861.7173739999999	1134.97938	-413.468807	849.701087	1136.794827	-298.804417	980.217567	826.391451	-188.94571	1103.738613	727.21833	-197.585647	920.595499	929.282729	-517.993323	789.533138	816.580395	-472.620289	786.3410720000001	674.183673	-464.816078	1134.649387	492.692791	-253.923073	1039.329587	503.737526	-189.136883	732.44656	447.808817	-395.977537	601.201652	402.520808	-436.936329	831.851937	299.938594	-251.441571	1040.270225	173.829543	-262.59544	983.920782	177.812313	-169.132031	425.483353	251.681295	-346.262543	575.859031	71.477284	-317.297847	509.337618	63.894331	-408.53021	999.4912420000001	1563.424915	-499.471534	971.653147	1546.8641	-179.621486	1045.296888	1513.315301	-300.706215	929.191056	1577.786558	-349.370153	834.251517	1494.273251	-144.434838	849.109394	1432.67022	-94.507014	751.595299	1395.557985	-70.148189	693.593068	1356.250347	-49.103958	912.351264	1463.955714	-566.605829	948.063227	1388.512821	-587.973153	880.831275	1321.769777	-621.750593	868.54321	1255.786441	-643.3873149999999	847.165562	1231.86818	-557.6737419999999	757.676548	1268.616161	-30.806586	852.058889	1137.615488	-51.072844	945.371093	1229.408809	-622.709413	1085.480087	1292.180653	-514.1178200000001	1105.017194	1226.221651	-537.110062	1003.082715	1072.988466	-220.410492	1007.126323	351.614869	-254.78823	595.206915	280.051778	-377.039249	700.169312	1321.913095	-133.204164	897.8553900000001	1169.813406	-91.05453900000001	948.063068	973.201362	-161.883735	1013.501371	1077.612957	-495.694344	
